<mxfile host="app.diagrams.net" agent="Mozilla/5.0 (Windows NT 10.0; Win64; x64) AppleWebKit/537.36 (KHTML, like Gecko) Chrome/133.0.0.0 Safari/537.36" version="26.0.15">
  <diagram name="Page-1" id="OZMEXE9qiZKhC_GyDNDu">
    <mxGraphModel dx="1338" dy="1343" grid="1" gridSize="10" guides="1" tooltips="1" connect="1" arrows="1" fold="1" page="1" pageScale="1" pageWidth="850" pageHeight="1100" math="0" shadow="0">
      <root>
        <mxCell id="0" />
        <mxCell id="1" parent="0" />
        <mxCell id="ywR6gdVo3KpFQ-rbXmJj-112" value="" style="rounded=0;whiteSpace=wrap;html=1;dashed=1;" parent="1" vertex="1">
          <mxGeometry x="-90" y="188" width="990" height="420" as="geometry" />
        </mxCell>
        <mxCell id="uKL7S93gOn8IDhQJY8BF-62" value="" style="rounded=0;whiteSpace=wrap;html=1;dashed=1;" parent="1" vertex="1">
          <mxGeometry x="410" y="5" width="280" height="145" as="geometry" />
        </mxCell>
        <mxCell id="uKL7S93gOn8IDhQJY8BF-1" value="" style="endArrow=none;html=1;rounded=0;" parent="1" edge="1">
          <mxGeometry width="50" height="50" relative="1" as="geometry">
            <mxPoint x="-120" y="240" as="sourcePoint" />
            <mxPoint x="40" y="241.25" as="targetPoint" />
          </mxGeometry>
        </mxCell>
        <mxCell id="uKL7S93gOn8IDhQJY8BF-2" value="" style="endArrow=none;html=1;rounded=0;" parent="1" edge="1">
          <mxGeometry width="50" height="50" relative="1" as="geometry">
            <mxPoint x="-120" y="280" as="sourcePoint" />
            <mxPoint x="40" y="281.25" as="targetPoint" />
          </mxGeometry>
        </mxCell>
        <mxCell id="uKL7S93gOn8IDhQJY8BF-3" value="" style="endArrow=none;html=1;rounded=0;" parent="1" edge="1">
          <mxGeometry width="50" height="50" relative="1" as="geometry">
            <mxPoint x="-120" y="320" as="sourcePoint" />
            <mxPoint x="40" y="322.25" as="targetPoint" />
          </mxGeometry>
        </mxCell>
        <mxCell id="uKL7S93gOn8IDhQJY8BF-5" value="" style="endArrow=none;html=1;rounded=0;" parent="1" edge="1">
          <mxGeometry width="50" height="50" relative="1" as="geometry">
            <mxPoint x="-120" y="360" as="sourcePoint" />
            <mxPoint x="40" y="361.25" as="targetPoint" />
          </mxGeometry>
        </mxCell>
        <mxCell id="uKL7S93gOn8IDhQJY8BF-6" value="" style="endArrow=none;html=1;rounded=0;" parent="1" edge="1">
          <mxGeometry width="50" height="50" relative="1" as="geometry">
            <mxPoint x="-120" y="400" as="sourcePoint" />
            <mxPoint x="40" y="401.25" as="targetPoint" />
          </mxGeometry>
        </mxCell>
        <mxCell id="uKL7S93gOn8IDhQJY8BF-7" value="" style="endArrow=none;html=1;rounded=0;" parent="1" edge="1">
          <mxGeometry width="50" height="50" relative="1" as="geometry">
            <mxPoint x="-120" y="440" as="sourcePoint" />
            <mxPoint x="40" y="441.25" as="targetPoint" />
          </mxGeometry>
        </mxCell>
        <mxCell id="uKL7S93gOn8IDhQJY8BF-8" value="" style="endArrow=none;html=1;rounded=0;" parent="1" edge="1">
          <mxGeometry width="50" height="50" relative="1" as="geometry">
            <mxPoint x="-120" y="480" as="sourcePoint" />
            <mxPoint x="40" y="481.25" as="targetPoint" />
          </mxGeometry>
        </mxCell>
        <mxCell id="uKL7S93gOn8IDhQJY8BF-9" value="" style="endArrow=none;html=1;rounded=0;" parent="1" edge="1">
          <mxGeometry width="50" height="50" relative="1" as="geometry">
            <mxPoint x="-120" y="520" as="sourcePoint" />
            <mxPoint x="40" y="521.25" as="targetPoint" />
          </mxGeometry>
        </mxCell>
        <mxCell id="uKL7S93gOn8IDhQJY8BF-10" value="" style="endArrow=none;html=1;rounded=0;" parent="1" edge="1">
          <mxGeometry width="50" height="50" relative="1" as="geometry">
            <mxPoint x="-120" y="560" as="sourcePoint" />
            <mxPoint x="40" y="561.25" as="targetPoint" />
          </mxGeometry>
        </mxCell>
        <mxCell id="uKL7S93gOn8IDhQJY8BF-13" value="S1" style="text;html=1;align=center;verticalAlign=middle;whiteSpace=wrap;rounded=0;" parent="1" vertex="1">
          <mxGeometry x="-190" y="220" width="60" height="30" as="geometry" />
        </mxCell>
        <mxCell id="uKL7S93gOn8IDhQJY8BF-14" value="S2" style="text;html=1;align=center;verticalAlign=middle;whiteSpace=wrap;rounded=0;" parent="1" vertex="1">
          <mxGeometry x="-190" y="250" width="60" height="30" as="geometry" />
        </mxCell>
        <mxCell id="uKL7S93gOn8IDhQJY8BF-15" value="S3" style="text;html=1;align=center;verticalAlign=middle;whiteSpace=wrap;rounded=0;" parent="1" vertex="1">
          <mxGeometry x="-190" y="290" width="60" height="30" as="geometry" />
        </mxCell>
        <mxCell id="uKL7S93gOn8IDhQJY8BF-16" value="S4" style="text;html=1;align=center;verticalAlign=middle;whiteSpace=wrap;rounded=0;" parent="1" vertex="1">
          <mxGeometry x="-190" y="330" width="60" height="30" as="geometry" />
        </mxCell>
        <mxCell id="uKL7S93gOn8IDhQJY8BF-17" value="S5" style="text;html=1;align=center;verticalAlign=middle;whiteSpace=wrap;rounded=0;" parent="1" vertex="1">
          <mxGeometry x="-190" y="370" width="60" height="30" as="geometry" />
        </mxCell>
        <mxCell id="uKL7S93gOn8IDhQJY8BF-18" value="S6" style="text;html=1;align=center;verticalAlign=middle;whiteSpace=wrap;rounded=0;" parent="1" vertex="1">
          <mxGeometry x="-190" y="410" width="60" height="30" as="geometry" />
        </mxCell>
        <mxCell id="uKL7S93gOn8IDhQJY8BF-19" value="S7" style="text;html=1;align=center;verticalAlign=middle;whiteSpace=wrap;rounded=0;" parent="1" vertex="1">
          <mxGeometry x="-190" y="450" width="60" height="30" as="geometry" />
        </mxCell>
        <mxCell id="uKL7S93gOn8IDhQJY8BF-20" value="S8" style="text;html=1;align=center;verticalAlign=middle;whiteSpace=wrap;rounded=0;" parent="1" vertex="1">
          <mxGeometry x="-190" y="490" width="60" height="30" as="geometry" />
        </mxCell>
        <mxCell id="uKL7S93gOn8IDhQJY8BF-21" value="S9" style="text;html=1;align=center;verticalAlign=middle;whiteSpace=wrap;rounded=0;" parent="1" vertex="1">
          <mxGeometry x="-190" y="530" width="60" height="30" as="geometry" />
        </mxCell>
        <mxCell id="uKL7S93gOn8IDhQJY8BF-28" value="Node" style="rounded=0;whiteSpace=wrap;html=1;" parent="1" vertex="1">
          <mxGeometry x="160" y="80" width="80" height="80" as="geometry" />
        </mxCell>
        <mxCell id="uKL7S93gOn8IDhQJY8BF-29" value="A" style="text;html=1;align=center;verticalAlign=middle;whiteSpace=wrap;rounded=0;" parent="1" vertex="1">
          <mxGeometry x="160" y="80" width="20" height="30" as="geometry" />
        </mxCell>
        <mxCell id="uKL7S93gOn8IDhQJY8BF-31" value="B" style="text;html=1;align=center;verticalAlign=middle;whiteSpace=wrap;rounded=0;" parent="1" vertex="1">
          <mxGeometry x="160" y="130" width="20" height="30" as="geometry" />
        </mxCell>
        <mxCell id="uKL7S93gOn8IDhQJY8BF-33" value="min" style="text;html=1;align=center;verticalAlign=middle;whiteSpace=wrap;rounded=0;" parent="1" vertex="1">
          <mxGeometry x="210" y="80" width="30" height="30" as="geometry" />
        </mxCell>
        <mxCell id="uKL7S93gOn8IDhQJY8BF-34" value="max" style="text;html=1;align=center;verticalAlign=middle;whiteSpace=wrap;rounded=0;" parent="1" vertex="1">
          <mxGeometry x="210" y="130" width="30" height="30" as="geometry" />
        </mxCell>
        <mxCell id="uKL7S93gOn8IDhQJY8BF-35" value="" style="endArrow=classic;html=1;rounded=0;entryX=0;entryY=0.5;entryDx=0;entryDy=0;" parent="1" target="uKL7S93gOn8IDhQJY8BF-29" edge="1">
          <mxGeometry width="50" height="50" relative="1" as="geometry">
            <mxPoint x="120" y="95" as="sourcePoint" />
            <mxPoint x="120" y="80" as="targetPoint" />
          </mxGeometry>
        </mxCell>
        <mxCell id="uKL7S93gOn8IDhQJY8BF-36" value="" style="endArrow=classic;html=1;rounded=0;entryX=0;entryY=0.5;entryDx=0;entryDy=0;" parent="1" edge="1">
          <mxGeometry width="50" height="50" relative="1" as="geometry">
            <mxPoint x="120" y="144.8" as="sourcePoint" />
            <mxPoint x="160" y="144.8" as="targetPoint" />
          </mxGeometry>
        </mxCell>
        <mxCell id="uKL7S93gOn8IDhQJY8BF-37" value="" style="endArrow=classic;html=1;rounded=0;entryX=0;entryY=0.5;entryDx=0;entryDy=0;" parent="1" edge="1">
          <mxGeometry width="50" height="50" relative="1" as="geometry">
            <mxPoint x="240" y="94.80000000000001" as="sourcePoint" />
            <mxPoint x="280" y="94.80000000000001" as="targetPoint" />
          </mxGeometry>
        </mxCell>
        <mxCell id="uKL7S93gOn8IDhQJY8BF-38" value="" style="endArrow=classic;html=1;rounded=0;entryX=0;entryY=0.5;entryDx=0;entryDy=0;" parent="1" edge="1">
          <mxGeometry width="50" height="50" relative="1" as="geometry">
            <mxPoint x="240" y="144.8" as="sourcePoint" />
            <mxPoint x="280" y="144.8" as="targetPoint" />
          </mxGeometry>
        </mxCell>
        <mxCell id="uKL7S93gOn8IDhQJY8BF-42" value="" style="endArrow=none;html=1;rounded=0;" parent="1" edge="1">
          <mxGeometry width="50" height="50" relative="1" as="geometry">
            <mxPoint x="380" y="40" as="sourcePoint" />
            <mxPoint x="460" y="40" as="targetPoint" />
          </mxGeometry>
        </mxCell>
        <mxCell id="uKL7S93gOn8IDhQJY8BF-43" value="" style="endArrow=none;html=1;rounded=0;" parent="1" edge="1">
          <mxGeometry width="50" height="50" relative="1" as="geometry">
            <mxPoint x="380" y="80" as="sourcePoint" />
            <mxPoint x="460" y="80" as="targetPoint" />
          </mxGeometry>
        </mxCell>
        <mxCell id="uKL7S93gOn8IDhQJY8BF-44" value="" style="endArrow=none;html=1;rounded=0;entryX=0.02;entryY=0.847;entryDx=0;entryDy=0;entryPerimeter=0;" parent="1" target="uKL7S93gOn8IDhQJY8BF-50" edge="1">
          <mxGeometry width="50" height="50" relative="1" as="geometry">
            <mxPoint x="380" y="120" as="sourcePoint" />
            <mxPoint x="460" y="120" as="targetPoint" />
          </mxGeometry>
        </mxCell>
        <mxCell id="uKL7S93gOn8IDhQJY8BF-45" value="S1" style="text;html=1;align=center;verticalAlign=middle;whiteSpace=wrap;rounded=0;" parent="1" vertex="1">
          <mxGeometry x="330" y="20" width="60" height="30" as="geometry" />
        </mxCell>
        <mxCell id="uKL7S93gOn8IDhQJY8BF-46" value="S2" style="text;html=1;align=center;verticalAlign=middle;whiteSpace=wrap;rounded=0;" parent="1" vertex="1">
          <mxGeometry x="330" y="50" width="60" height="30" as="geometry" />
        </mxCell>
        <mxCell id="uKL7S93gOn8IDhQJY8BF-47" value="S3" style="text;html=1;align=center;verticalAlign=middle;whiteSpace=wrap;rounded=0;" parent="1" vertex="1">
          <mxGeometry x="330" y="90" width="60" height="30" as="geometry" />
        </mxCell>
        <mxCell id="uKL7S93gOn8IDhQJY8BF-48" value="N1" style="rounded=0;whiteSpace=wrap;html=1;" parent="1" vertex="1">
          <mxGeometry x="462" y="30" width="40" height="60" as="geometry" />
        </mxCell>
        <mxCell id="uKL7S93gOn8IDhQJY8BF-49" value="" style="endArrow=none;html=1;rounded=0;exitX=0.99;exitY=0.84;exitDx=0;exitDy=0;exitPerimeter=0;" parent="1" source="uKL7S93gOn8IDhQJY8BF-48" edge="1">
          <mxGeometry width="50" height="50" relative="1" as="geometry">
            <mxPoint x="560" y="120" as="sourcePoint" />
            <mxPoint x="540" y="80" as="targetPoint" />
          </mxGeometry>
        </mxCell>
        <mxCell id="uKL7S93gOn8IDhQJY8BF-50" value="N2" style="rounded=0;whiteSpace=wrap;html=1;" parent="1" vertex="1">
          <mxGeometry x="540" y="70" width="40" height="60" as="geometry" />
        </mxCell>
        <mxCell id="uKL7S93gOn8IDhQJY8BF-51" value="N3" style="rounded=0;whiteSpace=wrap;html=1;" parent="1" vertex="1">
          <mxGeometry x="620" y="30" width="40" height="60" as="geometry" />
        </mxCell>
        <mxCell id="uKL7S93gOn8IDhQJY8BF-52" value="" style="endArrow=none;html=1;rounded=0;entryX=-0.04;entryY=0.173;entryDx=0;entryDy=0;entryPerimeter=0;exitX=1.04;exitY=0.167;exitDx=0;exitDy=0;exitPerimeter=0;" parent="1" source="uKL7S93gOn8IDhQJY8BF-48" target="uKL7S93gOn8IDhQJY8BF-51" edge="1">
          <mxGeometry width="50" height="50" relative="1" as="geometry">
            <mxPoint x="535" y="80" as="sourcePoint" />
            <mxPoint x="585" y="30" as="targetPoint" />
          </mxGeometry>
        </mxCell>
        <mxCell id="uKL7S93gOn8IDhQJY8BF-53" value="" style="endArrow=none;html=1;rounded=0;exitX=0.992;exitY=0.167;exitDx=0;exitDy=0;exitPerimeter=0;entryX=0.017;entryY=0.822;entryDx=0;entryDy=0;entryPerimeter=0;" parent="1" source="uKL7S93gOn8IDhQJY8BF-50" target="uKL7S93gOn8IDhQJY8BF-51" edge="1">
          <mxGeometry width="50" height="50" relative="1" as="geometry">
            <mxPoint x="650" y="100" as="sourcePoint" />
            <mxPoint x="700" y="50" as="targetPoint" />
          </mxGeometry>
        </mxCell>
        <mxCell id="uKL7S93gOn8IDhQJY8BF-54" value="" style="endArrow=none;html=1;rounded=0;exitX=0.996;exitY=0.837;exitDx=0;exitDy=0;exitPerimeter=0;" parent="1" source="uKL7S93gOn8IDhQJY8BF-50" edge="1">
          <mxGeometry width="50" height="50" relative="1" as="geometry">
            <mxPoint x="650" y="150" as="sourcePoint" />
            <mxPoint x="720" y="120" as="targetPoint" />
          </mxGeometry>
        </mxCell>
        <mxCell id="uKL7S93gOn8IDhQJY8BF-55" value="" style="endArrow=none;html=1;rounded=0;" parent="1" edge="1">
          <mxGeometry width="50" height="50" relative="1" as="geometry">
            <mxPoint x="661" y="41" as="sourcePoint" />
            <mxPoint x="720" y="41" as="targetPoint" />
          </mxGeometry>
        </mxCell>
        <mxCell id="uKL7S93gOn8IDhQJY8BF-56" value="" style="endArrow=none;html=1;rounded=0;exitX=1.032;exitY=0.181;exitDx=0;exitDy=0;exitPerimeter=0;" parent="1" edge="1">
          <mxGeometry width="50" height="50" relative="1" as="geometry">
            <mxPoint x="660" y="80" as="sourcePoint" />
            <mxPoint x="719" y="80" as="targetPoint" />
          </mxGeometry>
        </mxCell>
        <mxCell id="uKL7S93gOn8IDhQJY8BF-58" value="min" style="text;html=1;align=center;verticalAlign=middle;whiteSpace=wrap;rounded=0;" parent="1" vertex="1">
          <mxGeometry x="720" y="10" width="60" height="30" as="geometry" />
        </mxCell>
        <mxCell id="uKL7S93gOn8IDhQJY8BF-60" value="med" style="text;html=1;align=center;verticalAlign=middle;whiteSpace=wrap;rounded=0;" parent="1" vertex="1">
          <mxGeometry x="720" y="50" width="60" height="30" as="geometry" />
        </mxCell>
        <mxCell id="uKL7S93gOn8IDhQJY8BF-61" value="max" style="text;html=1;align=center;verticalAlign=middle;whiteSpace=wrap;rounded=0;" parent="1" vertex="1">
          <mxGeometry x="720" y="90" width="60" height="30" as="geometry" />
        </mxCell>
        <mxCell id="uKL7S93gOn8IDhQJY8BF-63" value="Sorting_network" style="text;html=1;align=center;verticalAlign=middle;whiteSpace=wrap;rounded=0;" parent="1" vertex="1">
          <mxGeometry x="530" y="-30" width="60" height="30" as="geometry" />
        </mxCell>
        <mxCell id="uKL7S93gOn8IDhQJY8BF-64" value="Sorting_network" style="rounded=0;whiteSpace=wrap;html=1;" parent="1" vertex="1">
          <mxGeometry x="40" y="231.25" width="120" height="100" as="geometry" />
        </mxCell>
        <mxCell id="uKL7S93gOn8IDhQJY8BF-65" value="" style="endArrow=none;html=1;rounded=0;exitX=1.01;exitY=0.096;exitDx=0;exitDy=0;exitPerimeter=0;entryX=0.005;entryY=0.327;entryDx=0;entryDy=0;entryPerimeter=0;" parent="1" source="uKL7S93gOn8IDhQJY8BF-64" target="ywR6gdVo3KpFQ-rbXmJj-98" edge="1">
          <mxGeometry width="50" height="50" relative="1" as="geometry">
            <mxPoint x="300" y="260" as="sourcePoint" />
            <mxPoint x="407.48" y="238.55000000000018" as="targetPoint" />
          </mxGeometry>
        </mxCell>
        <mxCell id="uKL7S93gOn8IDhQJY8BF-66" value="" style="endArrow=none;html=1;rounded=0;entryX=0;entryY=0.092;entryDx=0;entryDy=0;entryPerimeter=0;" parent="1" target="uKL7S93gOn8IDhQJY8BF-96" edge="1">
          <mxGeometry width="50" height="50" relative="1" as="geometry">
            <mxPoint x="160" y="280" as="sourcePoint" />
            <mxPoint x="321" y="279.66" as="targetPoint" />
            <Array as="points">
              <mxPoint x="320" y="280" />
              <mxPoint x="360" y="359" />
            </Array>
          </mxGeometry>
        </mxCell>
        <mxCell id="uKL7S93gOn8IDhQJY8BF-67" value="" style="endArrow=none;html=1;rounded=0;exitX=1.007;exitY=0.895;exitDx=0;exitDy=0;exitPerimeter=0;entryX=-0.019;entryY=0.167;entryDx=0;entryDy=0;entryPerimeter=0;" parent="1" source="uKL7S93gOn8IDhQJY8BF-64" target="ywR6gdVo3KpFQ-rbXmJj-103" edge="1">
          <mxGeometry width="50" height="50" relative="1" as="geometry">
            <mxPoint x="240" y="320" as="sourcePoint" />
            <mxPoint x="410.0000000000002" y="500.3000000000002" as="targetPoint" />
            <Array as="points">
              <mxPoint x="320" y="320" />
              <mxPoint x="400" y="500" />
            </Array>
          </mxGeometry>
        </mxCell>
        <mxCell id="uKL7S93gOn8IDhQJY8BF-68" value="min1" style="text;html=1;align=center;verticalAlign=middle;whiteSpace=wrap;rounded=0;" parent="1" vertex="1">
          <mxGeometry x="169.5" y="210" width="60" height="30" as="geometry" />
        </mxCell>
        <mxCell id="uKL7S93gOn8IDhQJY8BF-70" value="med1" style="text;html=1;align=center;verticalAlign=middle;whiteSpace=wrap;rounded=0;" parent="1" vertex="1">
          <mxGeometry x="170" y="250" width="60" height="30" as="geometry" />
        </mxCell>
        <mxCell id="uKL7S93gOn8IDhQJY8BF-71" value="max1" style="text;html=1;align=center;verticalAlign=middle;whiteSpace=wrap;rounded=0;" parent="1" vertex="1">
          <mxGeometry x="170" y="290" width="60" height="30" as="geometry" />
        </mxCell>
        <mxCell id="uKL7S93gOn8IDhQJY8BF-80" value="Sorting_network" style="rounded=0;whiteSpace=wrap;html=1;" parent="1" vertex="1">
          <mxGeometry x="39" y="351.25" width="120" height="100" as="geometry" />
        </mxCell>
        <mxCell id="uKL7S93gOn8IDhQJY8BF-81" value="" style="endArrow=none;html=1;rounded=0;exitX=1.01;exitY=0.096;exitDx=0;exitDy=0;exitPerimeter=0;entryX=-0.006;entryY=0.658;entryDx=0;entryDy=0;entryPerimeter=0;" parent="1" source="uKL7S93gOn8IDhQJY8BF-80" target="ywR6gdVo3KpFQ-rbXmJj-98" edge="1">
          <mxGeometry width="50" height="50" relative="1" as="geometry">
            <mxPoint x="299" y="380" as="sourcePoint" />
            <mxPoint x="409" y="260" as="targetPoint" />
            <Array as="points">
              <mxPoint x="320" y="360" />
              <mxPoint x="360" y="260" />
            </Array>
          </mxGeometry>
        </mxCell>
        <mxCell id="uKL7S93gOn8IDhQJY8BF-82" value="" style="endArrow=none;html=1;rounded=0;entryX=0;entryY=0.5;entryDx=0;entryDy=0;" parent="1" target="uKL7S93gOn8IDhQJY8BF-96" edge="1">
          <mxGeometry width="50" height="50" relative="1" as="geometry">
            <mxPoint x="159" y="400" as="sourcePoint" />
            <mxPoint x="320" y="399.66" as="targetPoint" />
          </mxGeometry>
        </mxCell>
        <mxCell id="uKL7S93gOn8IDhQJY8BF-83" value="" style="endArrow=none;html=1;rounded=0;entryX=0.016;entryY=0.668;entryDx=0;entryDy=0;entryPerimeter=0;" parent="1" target="ywR6gdVo3KpFQ-rbXmJj-103" edge="1">
          <mxGeometry width="50" height="50" relative="1" as="geometry">
            <mxPoint x="160" y="440" as="sourcePoint" />
            <mxPoint x="408.9200000000001" y="529.5999999999999" as="targetPoint" />
            <Array as="points">
              <mxPoint x="320" y="440" />
              <mxPoint x="350" y="530" />
            </Array>
          </mxGeometry>
        </mxCell>
        <mxCell id="uKL7S93gOn8IDhQJY8BF-84" value="min2" style="text;html=1;align=center;verticalAlign=middle;whiteSpace=wrap;rounded=0;" parent="1" vertex="1">
          <mxGeometry x="169.5" y="330" width="60" height="30" as="geometry" />
        </mxCell>
        <mxCell id="uKL7S93gOn8IDhQJY8BF-85" value="med2" style="text;html=1;align=center;verticalAlign=middle;whiteSpace=wrap;rounded=0;" parent="1" vertex="1">
          <mxGeometry x="170" y="370" width="60" height="30" as="geometry" />
        </mxCell>
        <mxCell id="uKL7S93gOn8IDhQJY8BF-86" value="max2" style="text;html=1;align=center;verticalAlign=middle;whiteSpace=wrap;rounded=0;" parent="1" vertex="1">
          <mxGeometry x="170" y="410" width="60" height="30" as="geometry" />
        </mxCell>
        <mxCell id="uKL7S93gOn8IDhQJY8BF-87" value="Sorting_network" style="rounded=0;whiteSpace=wrap;html=1;" parent="1" vertex="1">
          <mxGeometry x="40" y="471.25" width="120" height="100" as="geometry" />
        </mxCell>
        <mxCell id="uKL7S93gOn8IDhQJY8BF-88" value="" style="endArrow=none;html=1;rounded=0;exitX=1.01;exitY=0.096;exitDx=0;exitDy=0;exitPerimeter=0;entryX=-0.011;entryY=0.829;entryDx=0;entryDy=0;entryPerimeter=0;" parent="1" source="uKL7S93gOn8IDhQJY8BF-87" target="ywR6gdVo3KpFQ-rbXmJj-99" edge="1">
          <mxGeometry width="50" height="50" relative="1" as="geometry">
            <mxPoint x="300" y="500" as="sourcePoint" />
            <mxPoint x="410" y="280" as="targetPoint" />
            <Array as="points">
              <mxPoint x="320" y="480" />
              <mxPoint x="400" y="290" />
            </Array>
          </mxGeometry>
        </mxCell>
        <mxCell id="uKL7S93gOn8IDhQJY8BF-89" value="" style="endArrow=none;html=1;rounded=0;exitX=1;exitY=0.5;exitDx=0;exitDy=0;entryX=-0.022;entryY=0.907;entryDx=0;entryDy=0;entryPerimeter=0;" parent="1" source="uKL7S93gOn8IDhQJY8BF-87" target="uKL7S93gOn8IDhQJY8BF-96" edge="1">
          <mxGeometry width="50" height="50" relative="1" as="geometry">
            <mxPoint x="240" y="519.6600000000001" as="sourcePoint" />
            <mxPoint x="321" y="519.6600000000001" as="targetPoint" />
            <Array as="points">
              <mxPoint x="320" y="520" />
              <mxPoint x="360" y="440" />
            </Array>
          </mxGeometry>
        </mxCell>
        <mxCell id="uKL7S93gOn8IDhQJY8BF-90" value="" style="endArrow=none;html=1;rounded=0;exitX=1.007;exitY=0.888;exitDx=0;exitDy=0;exitPerimeter=0;entryX=-0.024;entryY=0.81;entryDx=0;entryDy=0;entryPerimeter=0;" parent="1" source="uKL7S93gOn8IDhQJY8BF-87" target="ywR6gdVo3KpFQ-rbXmJj-104" edge="1">
          <mxGeometry width="50" height="50" relative="1" as="geometry">
            <mxPoint x="240" y="560" as="sourcePoint" />
            <mxPoint x="407.72" y="559.0000000000002" as="targetPoint" />
          </mxGeometry>
        </mxCell>
        <mxCell id="uKL7S93gOn8IDhQJY8BF-91" value="min3" style="text;html=1;align=center;verticalAlign=middle;whiteSpace=wrap;rounded=0;" parent="1" vertex="1">
          <mxGeometry x="170" y="451.25" width="60" height="30" as="geometry" />
        </mxCell>
        <mxCell id="uKL7S93gOn8IDhQJY8BF-92" value="med3" style="text;html=1;align=center;verticalAlign=middle;whiteSpace=wrap;rounded=0;" parent="1" vertex="1">
          <mxGeometry x="169.5" y="490" width="60" height="30" as="geometry" />
        </mxCell>
        <mxCell id="uKL7S93gOn8IDhQJY8BF-93" value="max3" style="text;html=1;align=center;verticalAlign=middle;whiteSpace=wrap;rounded=0;" parent="1" vertex="1">
          <mxGeometry x="170" y="530" width="60" height="30" as="geometry" />
        </mxCell>
        <mxCell id="uKL7S93gOn8IDhQJY8BF-96" value="Sorting_network" style="rounded=0;whiteSpace=wrap;html=1;" parent="1" vertex="1">
          <mxGeometry x="410" y="350" width="120" height="100" as="geometry" />
        </mxCell>
        <mxCell id="uKL7S93gOn8IDhQJY8BF-97" value="min1" style="text;html=1;align=center;verticalAlign=middle;whiteSpace=wrap;rounded=0;" parent="1" vertex="1">
          <mxGeometry x="500" y="10" width="60" height="30" as="geometry" />
        </mxCell>
        <mxCell id="uKL7S93gOn8IDhQJY8BF-99" value="max1" style="text;html=1;align=center;verticalAlign=middle;whiteSpace=wrap;rounded=0;" parent="1" vertex="1">
          <mxGeometry x="500" y="45" width="60" height="30" as="geometry" />
        </mxCell>
        <mxCell id="uKL7S93gOn8IDhQJY8BF-100" value="min2" style="text;html=1;align=center;verticalAlign=middle;whiteSpace=wrap;rounded=0;" parent="1" vertex="1">
          <mxGeometry x="569" y="50" width="60" height="30" as="geometry" />
        </mxCell>
        <mxCell id="uKL7S93gOn8IDhQJY8BF-104" value="" style="endArrow=none;html=1;rounded=0;exitX=1;exitY=0.5;exitDx=0;exitDy=0;entryX=0;entryY=0.5;entryDx=0;entryDy=0;" parent="1" source="uKL7S93gOn8IDhQJY8BF-96" target="uKL7S93gOn8IDhQJY8BF-107" edge="1">
          <mxGeometry width="50" height="50" relative="1" as="geometry">
            <mxPoint x="740" y="460" as="sourcePoint" />
            <mxPoint x="600" y="400" as="targetPoint" />
          </mxGeometry>
        </mxCell>
        <mxCell id="uKL7S93gOn8IDhQJY8BF-107" value="Sorting_network" style="rounded=0;whiteSpace=wrap;html=1;" parent="1" vertex="1">
          <mxGeometry x="720" y="350" width="120" height="100" as="geometry" />
        </mxCell>
        <mxCell id="uKL7S93gOn8IDhQJY8BF-108" value="" style="endArrow=none;html=1;rounded=0;entryX=0.001;entryY=0.098;entryDx=0;entryDy=0;entryPerimeter=0;exitX=0.994;exitY=0.67;exitDx=0;exitDy=0;exitPerimeter=0;" parent="1" source="ywR6gdVo3KpFQ-rbXmJj-99" target="uKL7S93gOn8IDhQJY8BF-107" edge="1">
          <mxGeometry width="50" height="50" relative="1" as="geometry">
            <mxPoint x="530.5999999999999" y="279.0500000000002" as="sourcePoint" />
            <mxPoint x="610" y="350" as="targetPoint" />
            <Array as="points">
              <mxPoint x="570" y="280" />
              <mxPoint x="580" y="360" />
              <mxPoint x="640" y="360" />
            </Array>
          </mxGeometry>
        </mxCell>
        <mxCell id="uKL7S93gOn8IDhQJY8BF-110" value="" style="endArrow=none;html=1;rounded=0;entryX=-0.001;entryY=0.899;entryDx=0;entryDy=0;entryPerimeter=0;exitX=1;exitY=0.146;exitDx=0;exitDy=0;exitPerimeter=0;" parent="1" source="ywR6gdVo3KpFQ-rbXmJj-104" target="uKL7S93gOn8IDhQJY8BF-107" edge="1">
          <mxGeometry width="50" height="50" relative="1" as="geometry">
            <mxPoint x="530.0000000000002" y="520" as="sourcePoint" />
            <mxPoint x="570" y="500" as="targetPoint" />
            <Array as="points">
              <mxPoint x="560" y="520" />
              <mxPoint x="580" y="440" />
            </Array>
          </mxGeometry>
        </mxCell>
        <mxCell id="uKL7S93gOn8IDhQJY8BF-111" value="" style="endArrow=none;html=1;rounded=0;exitX=1;exitY=0.5;exitDx=0;exitDy=0;entryX=0.5;entryY=1;entryDx=0;entryDy=0;" parent="1" source="uKL7S93gOn8IDhQJY8BF-107" target="uKL7S93gOn8IDhQJY8BF-119" edge="1">
          <mxGeometry width="50" height="50" relative="1" as="geometry">
            <mxPoint x="770" y="420" as="sourcePoint" />
            <mxPoint x="780" y="400" as="targetPoint" />
          </mxGeometry>
        </mxCell>
        <mxCell id="uKL7S93gOn8IDhQJY8BF-118" value="med5" style="text;html=1;align=center;verticalAlign=middle;whiteSpace=wrap;rounded=0;" parent="1" vertex="1">
          <mxGeometry x="540" y="370" width="60" height="30" as="geometry" />
        </mxCell>
        <mxCell id="uKL7S93gOn8IDhQJY8BF-119" value="med_o" style="text;html=1;align=center;verticalAlign=middle;whiteSpace=wrap;rounded=0;" parent="1" vertex="1">
          <mxGeometry x="900" y="369.99" width="60" height="30" as="geometry" />
        </mxCell>
        <mxCell id="zksBitmu3ssV2ISToepD-1" value="stage 1" style="text;html=1;align=center;verticalAlign=middle;whiteSpace=wrap;rounded=0;" parent="1" vertex="1">
          <mxGeometry x="80" y="611.25" width="60" height="30" as="geometry" />
        </mxCell>
        <mxCell id="zksBitmu3ssV2ISToepD-3" value="stage 2" style="text;html=1;align=center;verticalAlign=middle;whiteSpace=wrap;rounded=0;" parent="1" vertex="1">
          <mxGeometry x="425" y="611.25" width="60" height="30" as="geometry" />
        </mxCell>
        <mxCell id="zksBitmu3ssV2ISToepD-4" value="stage 3" style="text;html=1;align=center;verticalAlign=middle;whiteSpace=wrap;rounded=0;" parent="1" vertex="1">
          <mxGeometry x="760" y="611.25" width="60" height="30" as="geometry" />
        </mxCell>
        <mxCell id="_PjeG-Arwg3pyeLobfxm-5" value="max5" style="text;html=1;align=center;verticalAlign=middle;whiteSpace=wrap;rounded=0;" parent="1" vertex="1">
          <mxGeometry x="530" y="250" width="60" height="30" as="geometry" />
        </mxCell>
        <mxCell id="_PjeG-Arwg3pyeLobfxm-6" value="min5" style="text;html=1;align=center;verticalAlign=middle;whiteSpace=wrap;rounded=0;" parent="1" vertex="1">
          <mxGeometry x="520" y="520" width="60" height="30" as="geometry" />
        </mxCell>
        <mxCell id="ywR6gdVo3KpFQ-rbXmJj-46" value="" style="group" parent="1" vertex="1" connectable="0">
          <mxGeometry x="-30" y="110" width="9" height="540" as="geometry" />
        </mxCell>
        <mxCell id="wZi2HciYngVircecvjnZ-3" value="" style="group" parent="ywR6gdVo3KpFQ-rbXmJj-46" vertex="1" connectable="0">
          <mxGeometry y="90" width="9" height="390" as="geometry" />
        </mxCell>
        <mxCell id="ywR6gdVo3KpFQ-rbXmJj-47" value="" style="rounded=0;whiteSpace=wrap;html=1;" parent="wZi2HciYngVircecvjnZ-3" vertex="1">
          <mxGeometry width="9" height="390" as="geometry" />
        </mxCell>
        <mxCell id="wZi2HciYngVircecvjnZ-2" value="" style="triangle;whiteSpace=wrap;html=1;rotation=270;" parent="wZi2HciYngVircecvjnZ-3" vertex="1">
          <mxGeometry x="2" y="385" width="5" height="5" as="geometry" />
        </mxCell>
        <mxCell id="ywR6gdVo3KpFQ-rbXmJj-98" value="Node" style="rounded=0;whiteSpace=wrap;html=1;" parent="1" vertex="1">
          <mxGeometry x="410" y="220" width="40" height="60" as="geometry" />
        </mxCell>
        <mxCell id="ywR6gdVo3KpFQ-rbXmJj-99" value="Node" style="rounded=0;whiteSpace=wrap;html=1;" parent="1" vertex="1">
          <mxGeometry x="480" y="240" width="40" height="60" as="geometry" />
        </mxCell>
        <mxCell id="ywR6gdVo3KpFQ-rbXmJj-100" value="" style="endArrow=none;html=1;rounded=0;exitX=1;exitY=0.75;exitDx=0;exitDy=0;entryX=-0.025;entryY=0.415;entryDx=0;entryDy=0;entryPerimeter=0;" parent="1" source="ywR6gdVo3KpFQ-rbXmJj-98" target="ywR6gdVo3KpFQ-rbXmJj-99" edge="1">
          <mxGeometry width="50" height="50" relative="1" as="geometry">
            <mxPoint x="490" y="281.25" as="sourcePoint" />
            <mxPoint x="540" y="231.25" as="targetPoint" />
          </mxGeometry>
        </mxCell>
        <mxCell id="ywR6gdVo3KpFQ-rbXmJj-102" value="max4" style="text;html=1;align=center;verticalAlign=middle;whiteSpace=wrap;rounded=0;" parent="1" vertex="1">
          <mxGeometry x="450" y="210" width="60" height="30" as="geometry" />
        </mxCell>
        <mxCell id="ywR6gdVo3KpFQ-rbXmJj-103" value="Node" style="rounded=0;whiteSpace=wrap;html=1;" parent="1" vertex="1">
          <mxGeometry x="410" y="490" width="40" height="60" as="geometry" />
        </mxCell>
        <mxCell id="ywR6gdVo3KpFQ-rbXmJj-104" value="Node" style="rounded=0;whiteSpace=wrap;html=1;" parent="1" vertex="1">
          <mxGeometry x="480" y="511.25" width="40" height="60" as="geometry" />
        </mxCell>
        <mxCell id="ywR6gdVo3KpFQ-rbXmJj-105" value="" style="endArrow=none;html=1;rounded=0;entryX=0.005;entryY=0.112;entryDx=0;entryDy=0;entryPerimeter=0;exitX=1.004;exitY=0.466;exitDx=0;exitDy=0;exitPerimeter=0;" parent="1" source="ywR6gdVo3KpFQ-rbXmJj-103" target="ywR6gdVo3KpFQ-rbXmJj-104" edge="1">
          <mxGeometry width="50" height="50" relative="1" as="geometry">
            <mxPoint x="450" y="519.47" as="sourcePoint" />
            <mxPoint x="480.60000000000014" y="520" as="targetPoint" />
          </mxGeometry>
        </mxCell>
        <mxCell id="ywR6gdVo3KpFQ-rbXmJj-106" value="min4" style="text;html=1;align=center;verticalAlign=middle;whiteSpace=wrap;rounded=0;" parent="1" vertex="1">
          <mxGeometry x="440" y="481.25" width="60" height="30" as="geometry" />
        </mxCell>
        <mxCell id="wZi2HciYngVircecvjnZ-4" value="" style="group" parent="1" vertex="1" connectable="0">
          <mxGeometry x="240" y="203" width="9" height="390" as="geometry" />
        </mxCell>
        <mxCell id="wZi2HciYngVircecvjnZ-5" value="" style="rounded=0;whiteSpace=wrap;html=1;" parent="wZi2HciYngVircecvjnZ-4" vertex="1">
          <mxGeometry width="9" height="390" as="geometry" />
        </mxCell>
        <mxCell id="wZi2HciYngVircecvjnZ-6" value="" style="triangle;whiteSpace=wrap;html=1;rotation=270;" parent="wZi2HciYngVircecvjnZ-4" vertex="1">
          <mxGeometry x="2" y="385" width="5" height="5" as="geometry" />
        </mxCell>
        <mxCell id="wZi2HciYngVircecvjnZ-8" value="" style="group" parent="1" vertex="1" connectable="0">
          <mxGeometry x="651" y="206.25" width="9" height="390" as="geometry" />
        </mxCell>
        <mxCell id="wZi2HciYngVircecvjnZ-9" value="" style="rounded=0;whiteSpace=wrap;html=1;" parent="wZi2HciYngVircecvjnZ-8" vertex="1">
          <mxGeometry width="9" height="390" as="geometry" />
        </mxCell>
        <mxCell id="wZi2HciYngVircecvjnZ-10" value="" style="triangle;whiteSpace=wrap;html=1;rotation=270;" parent="wZi2HciYngVircecvjnZ-8" vertex="1">
          <mxGeometry x="2" y="385" width="5" height="5" as="geometry" />
        </mxCell>
        <mxCell id="wZi2HciYngVircecvjnZ-11" value="" style="group" parent="1" vertex="1" connectable="0">
          <mxGeometry x="860" y="205" width="9" height="390" as="geometry" />
        </mxCell>
        <mxCell id="wZi2HciYngVircecvjnZ-12" value="" style="rounded=0;whiteSpace=wrap;html=1;" parent="wZi2HciYngVircecvjnZ-11" vertex="1">
          <mxGeometry width="9" height="390" as="geometry" />
        </mxCell>
        <mxCell id="wZi2HciYngVircecvjnZ-13" value="" style="triangle;whiteSpace=wrap;html=1;rotation=270;" parent="wZi2HciYngVircecvjnZ-11" vertex="1">
          <mxGeometry x="2" y="385" width="5" height="5" as="geometry" />
        </mxCell>
        <mxCell id="Paib4hkty35EO20joLLF-1" value="&amp;gt;&amp;nbsp;" style="rounded=0;whiteSpace=wrap;html=1;" parent="1" vertex="1">
          <mxGeometry x="-150" y="40" width="50" height="40" as="geometry" />
        </mxCell>
        <mxCell id="Paib4hkty35EO20joLLF-2" value="" style="endArrow=classic;html=1;rounded=0;entryX=0;entryY=0.25;entryDx=0;entryDy=0;" parent="1" target="Paib4hkty35EO20joLLF-1" edge="1">
          <mxGeometry width="50" height="50" relative="1" as="geometry">
            <mxPoint x="-190" y="50" as="sourcePoint" />
            <mxPoint x="-200" y="2.5" as="targetPoint" />
          </mxGeometry>
        </mxCell>
        <mxCell id="Paib4hkty35EO20joLLF-3" value="" style="endArrow=classic;html=1;rounded=0;entryX=0.018;entryY=0.346;entryDx=0;entryDy=0;entryPerimeter=0;fillColor=#f8cecc;strokeColor=#b85450;" parent="1" edge="1">
          <mxGeometry width="50" height="50" relative="1" as="geometry">
            <mxPoint x="-191" y="69.77" as="sourcePoint" />
            <mxPoint x="-150" y="69.77" as="targetPoint" />
          </mxGeometry>
        </mxCell>
        <mxCell id="Paib4hkty35EO20joLLF-5" value="A" style="text;html=1;align=center;verticalAlign=middle;whiteSpace=wrap;rounded=0;" parent="1" vertex="1">
          <mxGeometry x="-240" y="20" width="60" height="30" as="geometry" />
        </mxCell>
        <mxCell id="Paib4hkty35EO20joLLF-7" value="B" style="text;html=1;align=center;verticalAlign=middle;whiteSpace=wrap;rounded=0;" parent="1" vertex="1">
          <mxGeometry x="-240" y="55" width="60" height="30" as="geometry" />
        </mxCell>
        <mxCell id="Paib4hkty35EO20joLLF-8" value="" style="endArrow=classic;html=1;rounded=0;exitX=1;exitY=0.5;exitDx=0;exitDy=0;entryX=1;entryY=0.25;entryDx=0;entryDy=0;" parent="1" source="Paib4hkty35EO20joLLF-1" edge="1" target="Paib4hkty35EO20joLLF-10">
          <mxGeometry width="50" height="50" relative="1" as="geometry">
            <mxPoint x="-90" y="75" as="sourcePoint" />
            <mxPoint x="-60" y="20" as="targetPoint" />
            <Array as="points">
              <mxPoint x="-80" y="60" />
              <mxPoint x="-40" y="60" />
            </Array>
          </mxGeometry>
        </mxCell>
        <mxCell id="Paib4hkty35EO20joLLF-9" value="" style="endArrow=classic;html=1;rounded=0;exitX=1;exitY=0.5;exitDx=0;exitDy=0;entryX=0;entryY=0.25;entryDx=0;entryDy=0;" parent="1" source="Paib4hkty35EO20joLLF-1" edge="1" target="Paib4hkty35EO20joLLF-11">
          <mxGeometry width="50" height="50" relative="1" as="geometry">
            <mxPoint x="-70" y="80" as="sourcePoint" />
            <mxPoint x="-60" y="100" as="targetPoint" />
            <Array as="points">
              <mxPoint x="-80" y="60" />
              <mxPoint x="-80" y="100" />
              <mxPoint x="-40" y="100" />
            </Array>
          </mxGeometry>
        </mxCell>
        <mxCell id="Paib4hkty35EO20joLLF-10" value="" style="shape=trapezoid;perimeter=trapezoidPerimeter;whiteSpace=wrap;html=1;fixedSize=1;direction=south;" parent="1" vertex="1">
          <mxGeometry x="-60" y="-30" width="30" height="75" as="geometry" />
        </mxCell>
        <mxCell id="Paib4hkty35EO20joLLF-11" value="" style="shape=trapezoid;perimeter=trapezoidPerimeter;whiteSpace=wrap;html=1;fixedSize=1;direction=south;" parent="1" vertex="1">
          <mxGeometry x="-60" y="107.5" width="30" height="75" as="geometry" />
        </mxCell>
        <mxCell id="KOR-24eh5AWteCG2fDAp-1" value="" style="endArrow=classic;html=1;rounded=0;entryX=0.3;entryY=1;entryDx=0;entryDy=0;entryPerimeter=0;fillColor=#f8cecc;strokeColor=#b85450;" edge="1" parent="1" target="Paib4hkty35EO20joLLF-11">
          <mxGeometry width="50" height="50" relative="1" as="geometry">
            <mxPoint x="-170" y="70" as="sourcePoint" />
            <mxPoint x="-90" y="90" as="targetPoint" />
            <Array as="points">
              <mxPoint x="-170" y="130" />
            </Array>
          </mxGeometry>
        </mxCell>
        <mxCell id="KOR-24eh5AWteCG2fDAp-2" value="" style="endArrow=classic;html=1;rounded=0;entryX=0.75;entryY=1;entryDx=0;entryDy=0;fillColor=#f8cecc;strokeColor=#b85450;" edge="1" parent="1" target="Paib4hkty35EO20joLLF-10">
          <mxGeometry width="50" height="50" relative="1" as="geometry">
            <mxPoint x="-170" y="70" as="sourcePoint" />
            <mxPoint x="-120" y="-17.5" as="targetPoint" />
            <Array as="points">
              <mxPoint x="-170" y="26" />
            </Array>
          </mxGeometry>
        </mxCell>
        <mxCell id="KOR-24eh5AWteCG2fDAp-3" value="" style="endArrow=classic;html=1;rounded=0;exitX=1;exitY=1;exitDx=0;exitDy=0;entryX=0.706;entryY=0.979;entryDx=0;entryDy=0;entryPerimeter=0;fillColor=#fff2cc;strokeColor=#d6b656;" edge="1" parent="1" source="Paib4hkty35EO20joLLF-5" target="Paib4hkty35EO20joLLF-11">
          <mxGeometry width="50" height="50" relative="1" as="geometry">
            <mxPoint x="-150" y="135" as="sourcePoint" />
            <mxPoint x="-100" y="85" as="targetPoint" />
            <Array as="points">
              <mxPoint x="-180" y="160" />
            </Array>
          </mxGeometry>
        </mxCell>
        <mxCell id="KOR-24eh5AWteCG2fDAp-4" value="" style="endArrow=classic;html=1;rounded=0;exitX=1;exitY=1;exitDx=0;exitDy=0;fillColor=#fff2cc;strokeColor=#d6b656;" edge="1" parent="1" source="Paib4hkty35EO20joLLF-5">
          <mxGeometry width="50" height="50" relative="1" as="geometry">
            <mxPoint x="-200" y="20" as="sourcePoint" />
            <mxPoint x="-60" y="-10" as="targetPoint" />
            <Array as="points">
              <mxPoint x="-180" y="-10" />
            </Array>
          </mxGeometry>
        </mxCell>
      </root>
    </mxGraphModel>
  </diagram>
</mxfile>
